# File created by Blade
# Date/Time:  Tue Sep 30 19:29:51 2014
#---------------------------------------------------------
:version 1.10
:name HOM
:units
  mass 1.0
  length 1.000000
  angle deg
:documentation
     Acclaim Skeleton File
:root
   axis xyz
   order TX TY TZ RX RY RZ
   position 0.000000 0.000000 0.000000
   orientation 0 0 0
:bonedata
   begin
      id 1
      name RightUpLeg_dum
      direction -1.000000 0.000000 0.000000
      length 3.766986
      axis 0.0 0.0 0.0 xyz
   end
   begin
      id 2
      name LeftUpLeg_dum
      direction 1.000000 0.000000 0.000000
      length 3.766986
      axis 0.0 0.0 0.0 xyz
   end
   begin
      id 3
      name Spine_dum
      direction 0.000000 1.000000 0.000000
      length 7.779697
      axis 0.0 0.0 0.0 xyz
   end
   begin
      id 4
      name RightUpLeg
      direction 0.000000 -1.000000 0.000000
      length 18.017682
      axis 0.0 0.0 0.0 xyz
      dof rx ry rz
   end
   begin
      id 5
      name RightLeg
      direction 0.000000 -1.000000 0.000000
      length 16.881075
      axis 0.0 0.0 0.0 xyz
      dof rx ry rz
   end
   begin
      id 6
      name RightFoot
      direction 0.000000 -0.258819 0.965926
      length 5.770812
      axis 15.0 0.0 0.0 xyz
      dof rx ry rz
   end
   begin
      id 7
      name RightToeBase
      direction 0.000000 0.000000 1.000000
      length 2.952750
      axis 0.0 0.0 0.0 xyz
      dof rx ry rz
   end
   begin
      id 8
      name LeftUpLeg
      direction 0.000000 -1.000000 0.000000
      length 18.017682
      axis 0.0 0.0 0.0 xyz
      dof rx ry rz
   end
   begin
      id 9
      name LeftLeg
      direction 0.000000 -1.000000 0.000000
      length 16.881075
      axis 0.0 0.0 0.0 xyz
      dof rx ry rz
   end
   begin
      id 10
      name LeftFoot
      direction 0.000000 -0.258819 0.965926
      length 5.770812
      axis 15.0 0.0 0.0 xyz
      dof rx ry rz
   end
   begin
      id 11
      name LeftToeBase
      direction 0.000000 0.000000 1.000000
      length 2.952750
      axis 0.0 0.0 0.0 xyz
      dof rx ry rz
   end
   begin
      id 12
      name Spine
      direction 0.000000 1.000000 0.000000
      length 0.000000
      axis 0.0 0.0 0.0 xyz
      dof rx ry rz
   end
   begin
      id 13
      name Spine_dum1
      direction 0.000000 1.000000 0.000000
      length 10.941760
      axis 0.0 0.0 0.0 xyz
   end
   begin
      id 14
      name Spine_dum2
      direction 0.000000 1.000000 0.000000
      length 10.941760
      axis 0.0 0.0 0.0 xyz
   end
   begin
      id 15
      name Spine_dum3
      direction 0.000000 1.000000 0.000000
      length 16.646042
      axis 0.0 0.0 0.0 xyz
   end
   begin
      id 16
      name RightShoulder
      direction -1.000000 0.000000 0.000000
      length 7.708937
      axis 0.0 0.0 90.0 xyz
      dof rx ry rz
   end
   begin
      id 17
      name RightArm
      direction -1.000000 0.000000 0.000000
      length 11.521345
      axis 0.0 0.0 90.0 xyz
      dof rx ry rz
   end
   begin
      id 18
      name RightForeArm
      direction -1.000000 0.000000 0.000000
      length 10.175898
      axis 0.0 0.0 90.0 xyz
      dof ry rz rx
   end
   begin
      id 19
      name RightHand
      direction -1.000000 0.000000 0.000000
      length 0.000000
      axis 0.0 0.0 90.0 xyz
      dof rx ry rz
   end
   begin
      id 20
      name RightHand_dum1
      direction -1.000000 0.000000 0.000000
      length 3.937000
      axis 0.0 0.0 90.0 xyz
   end
   begin
      id 21
      name RightHand_dum2
      direction 0.000000 0.000000 0.000000
      length 0.000000
      axis 0.0 0.0 90.0 xyz
   end
   begin
      id 22
      name RightHandThumb1
      direction 0.000000 0.000000 1.000000
      length 3.937000
      axis 0.0 0.0 90.0 xyz
      dof rx rz ry
   end
   begin
      id 23
      name LeftShoulder
      direction 1.000000 0.000000 0.000000
      length 7.708937
      axis 0.0 0.0 -90.0 xyz
      dof rx ry rz
   end
   begin
      id 24
      name LeftArm
      direction 1.000000 0.000000 0.000000
      length 11.521345
      axis 0.0 0.0 -90.0 xyz
      dof rx ry rz
   end
   begin
      id 25
      name LeftForeArm
      direction 1.000000 0.000000 0.000000
      length 10.175898
      axis 0.0 0.0 -90.0 xyz
      dof ry rz rx
   end
   begin
      id 26
      name LeftHand
      direction 1.000000 0.000000 0.000000
      length 0.000000
      axis 0.0 0.0 -90.0 xyz
      dof rx ry rz
   end
   begin
      id 27
      name LeftHand_dum1
      direction 1.000000 0.000000 0.000000
      length 3.937000
      axis 0.0 0.0 -90.0 xyz
   end
   begin
      id 28
      name LeftHand_dum2
      direction 0.000000 0.000000 0.000000
      length 0.000000
      axis 0.0 0.0 -90.0 xyz
   end
   begin
      id 29
      name LeftHandThumb1
      direction 0.000000 0.000000 1.000000
      length 3.937000
      axis 0.0 0.0 -90.0 xyz
      dof rx rz ry
   end
   begin
      id 30
      name Head
      direction 0.000000 1.000000 0.000000
      length 4.527550
      axis 0.0 0.0 0.0 xyz
      dof rx ry rz
   end
:hierarchy
   begin
      root RightUpLeg_dum LeftUpLeg_dum Spine_dum
      RightUpLeg_dum RightUpLeg
      LeftUpLeg_dum LeftUpLeg
      Spine_dum Spine
      RightUpLeg RightLeg
      RightLeg RightFoot
      RightFoot RightToeBase
      LeftUpLeg LeftLeg
      LeftLeg LeftFoot
      LeftFoot LeftToeBase
      Spine Spine_dum1 Spine_dum2 Spine_dum3
      Spine_dum1 RightShoulder
      Spine_dum2 LeftShoulder
      Spine_dum3 Head
      RightShoulder RightArm
      RightArm RightForeArm
      RightForeArm RightHand
      RightHand RightHand_dum1 RightHand_dum2
      RightHand_dum2 RightHandThumb1
      LeftShoulder LeftArm
      LeftArm LeftForeArm
      LeftForeArm LeftHand
      LeftHand LeftHand_dum1 LeftHand_dum2
      LeftHand_dum2 LeftHandThumb1
   end

# File created by Blade
# Date/Time:  Mon Sep 22 17:46:01 2014
# Frame Rate: 120.000 fps
#------------------------------------------------------
:FULLY-SPECIFIED
:DEGREES
1
root 3.974335 37.466909 3.585722 -9.779338 -0.582927 -2.880806
RightUpLeg -2.501498 -2.727395 1.042837
RightLeg 27.696034 -0.000000 -0.000000
RightFoot -19.431637 -18.451579 20.609539
RightToeBase 6.789587 -0.000000 -0.000000
LeftUpLeg 12.946926 -17.838698 -6.720848
LeftLeg 4.377131 -0.000000 -0.000000
LeftFoot -14.710351 24.605723 -16.835580
LeftToeBase 10.537846 -0.000000 -0.000000
Spine 21.104818 -10.866832 -7.514493
RightShoulder -1.369852 -30.002335 -8.621096
RightArm 19.617393 -19.543102 63.873603
RightForeArm 3.718222 -0.000000 44.948208
RightHand -2.319224 0.000000 -1.220127
RightHandThumb1 -24.326973 -0.000000 -32.862282
LeftShoulder -16.107787 30.555612 6.766698
LeftArm 64.824925 -17.134423 -75.281437
LeftForeArm 18.150240 -0.000000 83.087369
LeftHand -28.138700 -0.000000 15.872930
LeftHandThumb1 -26.253704 0.000000 33.147579
Head 9.609425 15.099171 6.271891
2
root 3.991583 37.479306 3.589378 -9.754311 -0.505440 -3.105935
RightUpLeg -2.552998 -2.421699 1.286617
RightLeg 27.992033 -0.000000 -0.000000
RightFoot -19.479422 -18.434117 20.650371
RightToeBase 6.674803 -0.000000 -0.000000
LeftUpLeg 12.962277 -17.703246 -6.454745
LeftLeg 4.265135 -0.000000 -0.000000
LeftFoot -14.549300 24.375344 -16.674387
LeftToeBase 10.480761 -0.000000 -0.000000
Spine 21.007049 -10.954581 -7.277169
RightShoulder -1.417185 -30.045147 -8.586450
RightArm 19.598729 -19.711068 63.887506
RightForeArm 3.833445 -0.000000 44.777979
RightHand -2.229437 -0.000000 -1.224299
RightHandThumb1 -24.326973 -0.000000 -32.862282
LeftShoulder -16.158824 30.584720 6.657342
LeftArm 64.848444 -16.871920 -75.235561
LeftForeArm 18.199562 -0.000000 83.205516
LeftHand -28.063464 -0.000000 15.706243
LeftHandThumb1 -26.253704 0.000000 33.147579
Head 9.747319 15.126985 6.409466
3
root 4.003721 37.490089 3.589857 -9.704213 -0.446339 -3.305399
RightUpLeg -2.646086 -2.089599 1.526779
RightLeg 28.324636 -0.000000 -0.000000
RightFoot -19.527442 -18.517940 20.541674
RightToeBase 6.668752 -0.000000 -0.000000
LeftUpLeg 12.935705 -17.678184 -6.244582
LeftLeg 4.205494 -0.000000 -0.000000
LeftFoot -14.442784 24.312734 -16.529434
LeftToeBase 10.385289 -0.000000 -0.000000
Spine 20.867560 -10.980904 -7.089823
RightShoulder -1.462656 -30.141113 -8.503162
RightArm 19.599009 -19.855653 63.879584
RightForeArm 3.787766 0.000000 44.659961
RightHand -2.328587 -0.000000 -1.029699
RightHandThumb1 -24.326973 -0.000000 -32.862282
LeftShoulder -16.167801 30.657072 6.621107
LeftArm 64.874208 -16.617090 -75.168337
LeftForeArm 18.269766 0.000000 83.317095
LeftHand -27.879653 -0.000000 15.711262
LeftHandThumb1 -26.253704 0.000000 33.147579
Head 9.843821 14.973919 6.560301
4
root 4.016944 37.500783 3.589383 -9.638857 -0.398031 -3.507292
RightUpLeg -2.764167 -1.733571 1.774131
RightLeg 28.667048 -0.000000 -0.000000
RightFoot -19.700917 -18.577782 20.680428
RightToeBase 6.780924 -0.000000 -0.000000
LeftUpLeg 12.889195 -17.710421 -6.046320
LeftLeg 4.160417 -0.000000 -0.000000
LeftFoot -14.371641 24.317150 -16.400504
LeftToeBase 10.366393 -0.000000 -0.000000
Spine 20.715811 -11.012517 -6.880047
RightShoulder -1.485137 -30.182729 -8.427611
RightArm 19.555873 -20.007630 63.884401
RightForeArm 3.695698 -0.000000 44.541372
RightHand -2.215228 -0.000000 -1.271190
RightHandThumb1 -24.326973 -0.000000 -32.862282
LeftShoulder -16.173810 30.657126 6.566912
LeftArm 64.818201 -16.376204 -75.097307
LeftForeArm 18.316151 -0.000000 83.448617
LeftHand -27.636874 0.000000 15.591109
LeftHandThumb1 -26.253704 0.000000 33.147579
Head 9.919997 14.822530 6.657456
5
root 4.033008 37.510307 3.590146 -9.582708 -0.365799 -3.704258
RightUpLeg -2.890157 -1.399398 2.009075
RightLeg 29.055415 -0.000000 -0.000000
RightFoot -19.759263 -18.753168 20.574365
RightToeBase 6.782495 -0.000000 -0.000000
LeftUpLeg 12.840008 -17.690655 -5.847813
LeftLeg 4.137527 -0.000000 -0.000000
LeftFoot -14.303624 24.295447 -16.259175
LeftToeBase 10.293021 -0.000000 -0.000000
Spine 20.590050 -11.052290 -6.644936
RightShoulder -1.534636 -30.187988 -8.387871
RightArm 19.535603 -20.198588 63.877020
RightForeArm 3.703826 0.000000 44.451618
RightHand -2.250233 -0.000000 -1.154321
RightHandThumb1 -24.326973 -0.000000 -32.862282
LeftShoulder -16.221655 30.658143 6.458290
LeftArm 64.781438 -16.143071 -75.007917
LeftForeArm 18.350840 0.000000 83.580398
LeftHand -27.433659 0.000000 15.515299
LeftHandThumb1 -26.253704 0.000000 33.147579
Head 9.959480 14.928413 6.776146
6
root 4.047514 37.519435 3.590409 -9.530724 -0.356752 -3.883131
RightUpLeg -3.031704 -1.045849 2.232780
RightLeg 29.484630 -0.000000 -0.000000
RightFoot -19.819288 -18.951182 20.515273
RightToeBase 6.725814 -0.000000 -0.000000
LeftUpLeg 12.780026 -17.631825 -5.654217
LeftLeg 4.135976 -0.000000 -0.000000
LeftFoot -14.239129 24.230635 -16.147423
LeftToeBase 10.222400 -0.000000 -0.000000
Spine 20.460960 -11.038871 -6.452262
RightShoulder -1.542827 -30.219328 -8.317059
RightArm 19.492994 -20.323899 63.891509
RightForeArm 3.767208 -0.000000 44.392328
RightHand -2.238656 -0.000000 -1.119925
RightHandThumb1 -24.326973 -0.000000 -32.862282
LeftShoulder -16.243033 30.682594 6.405496
LeftArm 64.748401 -15.902198 -74.936920
LeftForeArm 18.461005 -0.000000 83.730148
LeftHand -27.320428 -0.000000 15.493322
LeftHandThumb1 -26.253704 0.000000 33.147579
Head 9.984060 14.786192 6.880526
7
root 4.064128 37.528862 3.594562 -9.491420 -0.375443 -4.062219
RightUpLeg -3.163048 -0.722258 2.457673
RightLeg 29.904149 -0.000000 -0.000000
RightFoot -19.907269 -19.177404 20.502872
RightToeBase 6.675492 -0.000000 -0.000000
LeftUpLeg 12.750993 -17.547765 -5.457633
LeftLeg 4.111741 -0.000000 -0.000000
LeftFoot -14.166348 24.125134 -16.052836
LeftToeBase 10.094277 -0.000000 -0.000000
Spine 20.344522 -11.034640 -6.211588
RightShoulder -1.525785 -30.254478 -8.316089
RightArm 19.449308 -20.418294 63.958772
RightForeArm 3.816774 -0.000000 44.353388
RightHand -2.174867 -0.000000 -0.852716
RightHandThumb1 -24.326973 -0.000000 -32.862282
LeftShoulder -16.280155 30.706889 6.268593
LeftArm 64.698494 -15.720674 -74.824367
LeftForeArm 18.529271 0.000000 83.885220
LeftHand -27.192057 -0.000000 15.484809
LeftHandThumb1 -26.253704 0.000000 33.147579
Head 9.974369 14.759267 6.882729
